<svg xmlns="http://www.w3.org/2000/svg" viewBox="0 0 400 400" id="Beta-Testing--Streamline-Free-Illustrations"><desc>Beta Testing Streamline Illustration: https://streamlinehq.com</desc><g transform="scale(2)"><defs></defs><path d="M190.48 83.696h3.203v37.163h-3.203Z" fill="#ffc077"></path><path d="m104.117 124.6-1.022-1.043c-5.112-.4-12.88-2.452-17.8-8.527a10.194 10.194 0 0 1-.789-1.116 6.993 6.993 0 0 1-.916-2.312c-.836-4.383 3.695-7.573 5.829-8.095 2.685-.649 7.305.195 9.167.59.51.11.815.182.815.182a6.508 6.508 0 0 0 1 0q.343-.02.738-.051c.085 0 .17-.008.259-.017.051 0 .1 0 .153-.008a18.46 18.46 0 0 1 3.041.038c.289.03.59.072.9.123a12.853 12.853 0 0 1 1.255.285c.217.059.433.123.649.195a.134.134 0 0 0 .03.009c.1.033.2.067.3.106l0-.005a14.093 14.093 0 0 1 4.259 2.5c1.175.993 2.469 2.028 3.814 3.059a117.33 117.33 0 0 0 5.54 3.992s.671.128 1.672.255l.013-.106v-12.346h24.529c4 8.5 10.267 23.923 14.709 36.294 4.62 12.863 19.468 35.33 22.48 42.839 3.585 8.926 3.585 13.9 3.585 13.9H135.57a24.989 24.989 0 0 0-.619-5.834l1.922-8.6c-1.493.038-3.844 0-3.844 0l0 .008c-.271-.059-1.616-.394-7.1-1.824-8.366-2.181-26.507-24.882-26.507-24.882-1.832-.857-5.044-4.861-6.945-7.377a8.417 8.417 0 0 1-1.667-4.315h-.03s-9.532-1.1-14.653-2.732c0 0-8.158-2.138-10.432-3.118 0 0-14.254-5.29-17.856-7.373s-1.9-10.814 5.311-8.727a229.127 229.127 0 0 1 8.163 2.529 9.522 9.522 0 0 0 5.575 1.79h10.549s12.294 2.677 14.606 3.19l.3.017a12.793 12.793 0 0 1 1.166-3.207h10.394Z" fill="#ffc077"></path><path d="M185.406 95.579c.03-.042.059-.084.089-.123a5.757 5.757 0 0 1-1.158 2.923A3.531 3.531 0 0 1 180.3 99.7l-2.5 3.173-2.8-3.555 2.5-3.173a6.207 6.207 0 0 1 1.039-5.121 3.813 3.813 0 0 1 2.308-1.464.749.749 0 0 0-.1.111 5.007 5.007 0 0 0 0 5.909 2.835 2.835 0 0 0 4.659-.001Z" fill="#69d6f9"></path><path d="M183.166 108.417a4.08 4.08 0 0 1 0 4.823 2.316 2.316 0 0 1-3.806 0 3.925 3.925 0 0 1-.784-2.358l-.034.046-3.551-4.5-2.8-3.555-2.5-3.173a3.534 3.534 0 0 1-4.043-1.32 5.779 5.779 0 0 1-1.154-2.923c.029.039.055.081.089.123a2.831 2.831 0 0 0 4.658 0 5 5 0 0 0 0-5.909 1.393 1.393 0 0 0-.093-.111 3.8 3.8 0 0 1 2.3 1.464 6.206 6.206 0 0 1 1.044 5.121l2.5 3.173 2.8 3.555 3.547 4.5-.034.047a2.429 2.429 0 0 1 1.861.997Z" fill="#69d6f9"></path><path d="m172.187 102.872 2.804 3.555-1.277 1.621-1.527-5.176z" fill="#0400bf"></path><path d="m172.187 102.872 1.527 5.176-2.274 2.88-.038-.046a3.911 3.911 0 0 1-.785 2.359 2.317 2.317 0 0 1-3.806 0 4.1 4.1 0 0 1 0-4.824 2.444 2.444 0 0 1 1.863-1l-.038-.047Z" fill="#69d6f9"></path><path d="M168.627 7.758h3.055v35.454h-3.055Z" fill="#ffc077"></path><path d="M157.448 24.922a1.483 1.483 0 0 1 .213 1.659l-.208.382-1.9 3.508a3.973 3.973 0 0 1 .344 1.383c.11 1.689-.819 3.123-2.071 3.2s-2.358-1.221-2.469-2.91.819-3.122 2.071-3.2a1.7 1.7 0 0 1 .683.093l1.7-3.13.415-.768a.733.733 0 0 1 1.222-.217Z" fill="#69d6f9"></path><path d="M147.555 102.308h-24.529V57s3.61 1.107 8.226 9.023 11.878 27.054 15.837 35.3c.152.315.311.641.466.985Z" fill="#ffc077"></path><path d="m133.08 180.924-.051-.017s2.351.038 3.844 0l-1.922 8.6c-.747-4.017-1.867-8.395-1.918-8.595a.334.334 0 0 0 .047.012Z" fill="#0400bf"></path><path d="M123.026 102.308v12.337l-.013.106c-1-.127-1.672-.255-1.672-.255a116.816 116.816 0 0 1-5.54-3.992l.059-.076a5.652 5.652 0 0 0 .45-2.215v-5.9Z" fill="#69d6f9"></path><path d="M116.31 31.036v-6.1a5.7 5.7 0 0 0-5.7-5.7H76.8a5.7 5.7 0 0 0-5.7 5.7v12.429a5.7 5.7 0 0 0 5.7 5.7h33.807a5.7 5.7 0 0 0 5.7-5.7ZM63.4 67.52V15.581A10.238 10.238 0 0 1 73.636 5.344h1.226a7.712 7.712 0 0 0 7.712 7.712h19.185a7.72 7.72 0 0 0 7.716-7.712h3.31a10.238 10.238 0 0 1 10.241 10.237v86.727h-6.716v-6.521a5.7 5.7 0 0 0-5.7-5.7H76.8a5.7 5.7 0 0 0-5.7 5.7v12.426a5.7 5.7 0 0 0 5.7 5.7h7.709a10.194 10.194 0 0 0 .789 1.116c4.917 6.075 12.685 8.124 17.8 8.527l1.022 1.043-.212.289H73.636A10.242 10.242 0 0 1 63.4 114.645V67.52Zm7.708 0v5.269a5.7 5.7 0 0 0 5.7 5.7h33.807a5.7 5.7 0 0 0 5.7-5.7V60.363a5.7 5.7 0 0 0-5.7-5.7H76.8a5.7 5.7 0 0 0-5.7 5.7Z" fill="#69d6f9"></path><path d="M116.31 102.308v5.9a5.652 5.652 0 0 1-.45 2.215l-.059.076a103.813 103.813 0 0 1-3.814-3.059 14.093 14.093 0 0 0-4.259-2.5 5.053 5.053 0 1 0-9.431-2.524 4.985 4.985 0 0 0 .292 1.676c-1.862-.395-6.482-1.239-9.167-.59-2.134.522-6.665 3.712-5.829 8.095a6.993 6.993 0 0 0 .916 2.312H76.8a5.7 5.7 0 0 1-5.7-5.7V95.787a5.7 5.7 0 0 1 5.7-5.7h33.807a5.7 5.7 0 0 1 5.7 5.7v6.521Z" fill="#69d6f9"></path><path d="M71.1 67.52v-7.157a5.7 5.7 0 0 1 5.7-5.7h33.807a5.7 5.7 0 0 1 5.7 5.7v12.426a5.7 5.7 0 0 1-5.7 5.7H76.8a5.7 5.7 0 0 1-5.7-5.7Zm16.444.11a5.051 5.051 0 1 0-5.053 5.053 5.054 5.054 0 0 0 5.056-5.053Z" fill="#69d6f9"></path><path d="M116.31 31.036v6.329a5.7 5.7 0 0 1-5.7 5.7H76.8a5.7 5.7 0 0 1-5.7-5.7V24.939a5.7 5.7 0 0 1 5.7-5.7h33.807a5.7 5.7 0 0 1 5.7 5.7Zm-7.908.11a5.053 5.053 0 1 0-5.053 5.053 5.055 5.055 0 0 0 5.051-5.053Z" fill="#69d6f9"></path><path d="M74.862 5.344h34.613a7.72 7.72 0 0 1-7.716 7.712H82.574a7.712 7.712 0 0 1-7.712-7.712Z" fill="#0400bf"></path><path d="M108.4 102.418a5.086 5.086 0 0 1-.674 2.524l-.306-.1a.134.134 0 0 1-.03-.009 7.507 7.507 0 0 0-.649-.195 9.347 9.347 0 0 0-.318-.085c-.144-.038-.284-.068-.424-.1l-.513-.1c-.306-.055-.6-.093-.9-.123a18.023 18.023 0 0 0-3.041-.038c-.051 0-.1.008-.153.008a4.75 4.75 0 0 1-.259.017q-.4.025-.738.051a6.508 6.508 0 0 1-1 0s-.3-.072-.815-.182a4.985 4.985 0 0 1-.292-1.676 5.053 5.053 0 1 1 10.105 0Z" fill="#ffffff"></path><path d="M98.296 31.146a5.053 5.053 0 1 0 10.106 0 5.053 5.053 0 1 0-10.106 0" fill="#ffffff"></path><path d="M77.437 124.886h16.074a12.793 12.793 0 0 0-1.166 3.207l-.3-.017c-2.314-.513-14.608-3.19-14.608-3.19Z" fill="#0400bf"></path><path d="M82.494 62.578a5.053 5.053 0 1 1-5.049 5.052 5.054 5.054 0 0 1 5.049-5.052Z" fill="#ffffff"></path><path d="M70.666 5.344h2.97A10.238 10.238 0 0 0 63.4 15.581V67.52h-2.97V15.581A10.238 10.238 0 0 1 70.666 5.344Z" fill="#0400bf"></path><path d="M73.636 124.886h-2.97a10.242 10.242 0 0 1-10.241-10.241V67.52H63.4v47.125a10.242 10.242 0 0 0 10.236 10.241Z" fill="#0400bf"></path><path d="M57.311 96.39v12.96s-4.629-.793-10.924-1.841-6.3-8.6-2.936-11.119 13.427 0 13.427 0Z" fill="#ffc077"></path><path d="M37.567 63.265v6.813h-2.058c-.759 0-1.141 1.154-.6 1.833l1.455 1.829-3.835 4.819-1.457-1.829c-.539-.678-1.455-.2-1.455.756v2.587h-5.426v-2.587c0-.955-.917-1.434-1.456-.756l-1.455 1.829-3.835-4.819 1.455-1.829c.539-.679.157-1.833-.6-1.833h-2.06v-6.813h2.06c.759 0 1.141-1.158.6-1.833L17.445 59.6l3.835-4.819 1.455 1.828c.539.675 1.456.2 1.456-.759v-2.584h5.426v2.588c0 .958.916 1.434 1.455.759l1.455-1.828 3.835 4.815-1.455 1.828c-.539.675-.157 1.833.6 1.833Zm-7.446 3.407c0-2.236-1.442-4.048-3.215-4.048s-3.22 1.812-3.22 4.048 1.442 4.043 3.22 4.043 3.215-1.815 3.215-4.043Z" fill="#69d6f9"></path><path d="M6.835 47.335h3.479v40.371H6.835Z" fill="#ffc077"></path><path d="m10.314 47.335 34.053 2.97 0 34.431-34.053 2.97" fill="none" stroke="#0400bf" stroke-linecap="round" stroke-linejoin="round" stroke-width=".848"></path><path d="M6.835 47.335h3.479v40.371H6.835Z" fill="none" stroke="#0400bf" stroke-linecap="round" stroke-linejoin="round" stroke-width=".848"></path><path d="m168.627 7.758-29.904 6.427 0 32.361 29.904-3.335" fill="none" stroke="#0400bf" stroke-linecap="round" stroke-linejoin="round" stroke-width=".848"></path><path d="M168.627 7.758h3.055v35.454h-3.055Z" fill="none" stroke="#0400bf" stroke-linecap="round" stroke-linejoin="round" stroke-width=".848"></path><path d="m190.48 83.696-31.352 2.733 0 31.694 31.352 2.737" fill="none" stroke="#0400bf" stroke-linecap="round" stroke-linejoin="round" stroke-width=".848"></path><path d="M190.48 83.696h3.203v37.163h-3.203Z" fill="none" stroke="#0400bf" stroke-linecap="round" stroke-linejoin="round" stroke-width=".848"></path><path d="M109.475 5.344h3.31a10.238 10.238 0 0 1 10.241 10.237v99.064" fill="none" stroke="#0400bf" stroke-linecap="round" stroke-linejoin="round" stroke-width=".848"></path><path d="m74.319 5.344.543 0" fill="none" stroke="#0400bf" stroke-linecap="round" stroke-linejoin="round" stroke-width=".848"></path><path d="M70.666 124.886a10.242 10.242 0 0 1-10.241-10.241V15.581A10.238 10.238 0 0 1 70.666 5.344" fill="none" stroke="#0400bf" stroke-linecap="round" stroke-linejoin="round" stroke-width=".848"></path><path d="m103.905 124.886-10.394 0-16.074 0-3.118 0" fill="none" stroke="#0400bf" stroke-linecap="round" stroke-linejoin="round" stroke-width=".848"></path><path d="M73.636 124.886A10.242 10.242 0 0 1 63.4 114.645V15.581A10.238 10.238 0 0 1 73.636 5.344" fill="none" stroke="#0400bf" stroke-linecap="round" stroke-linejoin="round" stroke-width=".848"></path><path d="M61.316 123.1a9.576 9.576 0 0 1-4.005-7.8V14.927A9.581 9.581 0 0 1 66.9 5.344h7.424" fill="none" stroke="#0400bf" stroke-linecap="round" stroke-linejoin="round" stroke-width=".848"></path><path d="M74.319 124.886H66.9a9.522 9.522 0 0 1-5.575-1.79" fill="none" stroke="#0400bf" stroke-linecap="round" stroke-linejoin="round" stroke-width=".848"></path><path d="M109.475 5.344a7.72 7.72 0 0 1-7.716 7.712H82.574a7.712 7.712 0 0 1-7.712-7.712Z" fill="none" stroke="#0400bf" stroke-linecap="round" stroke-linejoin="round" stroke-width=".848"></path><path d="M110.608 43.063H76.8a5.7 5.7 0 0 1-5.7-5.7V24.939a5.7 5.7 0 0 1 5.7-5.7h33.807a5.7 5.7 0 0 1 5.7 5.7v12.426a5.7 5.7 0 0 1-5.699 5.698Z" fill="none" stroke="#0400bf" stroke-linecap="round" stroke-linejoin="round" stroke-width=".848"></path><path d="M110.608 78.487H76.8a5.7 5.7 0 0 1-5.7-5.7V60.363a5.7 5.7 0 0 1 5.7-5.7h33.807a5.7 5.7 0 0 1 5.7 5.7v12.426a5.7 5.7 0 0 1-5.699 5.698Z" fill="none" stroke="#0400bf" stroke-linecap="round" stroke-linejoin="round" stroke-width=".848"></path><path d="M84.513 113.911H76.8a5.7 5.7 0 0 1-5.7-5.7V95.787a5.7 5.7 0 0 1 5.7-5.7h33.807a5.7 5.7 0 0 1 5.7 5.7v12.426a5.652 5.652 0 0 1-.45 2.215" fill="none" stroke="#0400bf" stroke-linecap="round" stroke-linejoin="round" stroke-width=".848"></path><path d="m47.388 67.52 9.923 0 3.114 0 2.97 0 7.708 0 3.759 0" fill="none" stroke="#0400bf" stroke-linecap="round" stroke-linejoin="round" stroke-width=".848"></path><path d="M98.589 104.094c-1.862-.395-6.482-1.239-9.167-.59-2.134.522-6.665 3.712-5.829 8.095a6.993 6.993 0 0 0 .916 2.312 10.194 10.194 0 0 0 .789 1.116c4.917 6.075 12.685 8.124 17.8 8.527l1.022 1.043c2.486 2.55 8.786 9 10.462 10.8 0 0 4.887 19.158 10.292 24.563 7.314 7.318 11.5 9.405 16.2 10.105" fill="none" stroke="#0400bf" stroke-linecap="round" stroke-linejoin="round" stroke-width=".848"></path><path d="M101.139 104.221q-.4.025-.738.051" fill="none" stroke="#0400bf" stroke-linecap="round" stroke-linejoin="round" stroke-width=".848"></path><path d="M105.488 104.357c-.306-.055-.6-.093-.9-.123a18.023 18.023 0 0 0-3.041-.038" fill="none" stroke="#0400bf" stroke-linecap="round" stroke-linejoin="round" stroke-width=".848"></path><path d="M106.425 104.552c-.144-.038-.284-.068-.424-.1" fill="none" stroke="#0400bf" stroke-linecap="round" stroke-linejoin="round" stroke-width=".848"></path><path d="M107.392 104.832a7.507 7.507 0 0 0-.649-.195" fill="none" stroke="#0400bf" stroke-linecap="round" stroke-linejoin="round" stroke-width=".848"></path><path d="M129.754 119.26a47.135 47.135 0 0 1-8.413-4.764 116.816 116.816 0 0 1-5.54-3.992 103.813 103.813 0 0 1-3.814-3.059 14.093 14.093 0 0 0-4.259-2.5l-.306-.1" fill="none" stroke="#0400bf" stroke-linecap="round" stroke-linejoin="round" stroke-width=".848"></path><path d="M121.341 114.5s.671.128 1.672.255c2.07.267 5.566.547 7.509-.255" fill="none" stroke="#0400bf" stroke-linecap="round" stroke-linejoin="round" stroke-width=".848"></path><path d="M101.4 104.2c-1.095 1.2-6.381 5.218-5.7 10.292" fill="none" stroke="#0400bf" stroke-linecap="round" stroke-linejoin="round" stroke-width=".848"></path><path d="M83.593 111.6c1.994 1.493 6.893 2.4 8.811 1.323 0 0 1.129-5.748 3.665-7.661" fill="none" stroke="#0400bf" stroke-linecap="round" stroke-linejoin="round" stroke-width=".848"></path><path d="M188.329 195.344s0-4.977-3.585-13.9c-3.012-7.509-17.86-29.977-22.48-42.839-4.442-12.371-10.712-27.8-14.709-36.294-.157-.344-.314-.67-.466-.989-3.959-8.247-11.217-27.38-15.837-35.3S123.026 57 123.026 57" fill="none" stroke="#0400bf" stroke-linecap="round" stroke-linejoin="round" stroke-width=".848"></path><path d="m133.08 180.924-.051-.017 0 .008c.051.2 1.171 4.578 1.918 8.595a24.989 24.989 0 0 1 .619 5.834" fill="none" stroke="#0400bf" stroke-linecap="round" stroke-linejoin="round" stroke-width=".848"></path><path d="M90.953 139.785a9.159 9.159 0 0 0-.17 2.083c0 .217.013.433.03.649a8.417 8.417 0 0 0 1.667 4.315c1.9 2.516 5.113 6.52 6.945 7.377 0 0 18.141 22.7 26.507 24.882 5.485 1.43 6.83 1.765 7.1 1.824a.334.334 0 0 0 .047.009.035.035 0 0 0 .017 0" fill="none" stroke="#0400bf" stroke-linecap="round" stroke-linejoin="round" stroke-width=".848"></path><path d="M90.783 142.517s-9.532-1.1-14.653-2.732c0 0-8.158-2.138-10.432-3.118 0 0-14.254-5.29-17.856-7.373s-1.9-10.814 5.311-8.727a229.127 229.127 0 0 1 8.163 2.529h0" fill="none" stroke="#0400bf" stroke-linecap="round" stroke-linejoin="round" stroke-width=".848"></path><path d="M64.578 127.652s-.5 2.248-.623 3.373" fill="none" stroke="#0400bf" stroke-linecap="round" stroke-linejoin="round" stroke-width=".848"></path><path d="M77.73 129.773s-.5 3.521-.624 4.646" fill="none" stroke="#0400bf" stroke-linecap="round" stroke-linejoin="round" stroke-width=".848"></path><path d="M133.029 180.907s2.351.038 3.844 0l-1.922 8.6" fill="none" stroke="#0400bf" stroke-linecap="round" stroke-linejoin="round" stroke-width=".848"></path><path d="M56.878 96.39s-10.071-2.52-13.427 0-3.36 10.071 2.936 11.119 10.924 1.841 10.924 1.841" fill="none" stroke="#0400bf" stroke-linecap="round" stroke-linejoin="round" stroke-width=".848"></path><path d="M93.511 124.886a12.793 12.793 0 0 0-1.166 3.207 12.442 12.442 0 0 0-.3 2.1" fill="none" stroke="#0400bf" stroke-linecap="round" stroke-linejoin="round" stroke-width=".848"></path><path d="M77.437 124.886s12.294 2.677 14.606 3.19" fill="none" stroke="#0400bf" stroke-linecap="round" stroke-linejoin="round" stroke-width=".848"></path><path d="M87.547 67.63a5.051 5.051 0 1 1-5.053-5.052 5.052 5.052 0 0 1 5.053 5.052Z" fill="none" stroke="#0400bf" stroke-linecap="round" stroke-linejoin="round" stroke-width=".848"></path><path d="m134.213 31.036-11.187 0-6.716 0-5.324 0" fill="none" stroke="#0400bf" stroke-linecap="round" stroke-linejoin="round" stroke-width=".848"></path><path d="M98.296 31.146a5.053 5.053 0 1 0 10.106 0 5.053 5.053 0 1 0-10.106 0" fill="none" stroke="#0400bf" stroke-linecap="round" stroke-linejoin="round" stroke-width=".848"></path><path d="m155.425 102.308-7.87 0-24.529 0-6.716 0-5.324 0" fill="none" stroke="#0400bf" stroke-linecap="round" stroke-linejoin="round" stroke-width=".848"></path><path d="M98.589 104.094c.51.11.815.182.815.182a6.508 6.508 0 0 0 1 0q.343-.02.738-.051c.085 0 .17-.008.259-.017.051 0 .1 0 .153-.008a18.46 18.46 0 0 1 3.041.038c.289.03.59.072.9.123a12.853 12.853 0 0 1 1.255.285c.217.059.433.123.649.195a.134.134 0 0 0 .03.009c.1.033.2.067.3.106l0-.005a5.053 5.053 0 1 0-9.431-2.524 4.985 4.985 0 0 0 .291 1.667Z" fill="none" stroke="#0400bf" stroke-linecap="round" stroke-linejoin="round" stroke-width=".848"></path><path d="M37.567 63.265h-2.058c-.759 0-1.141-1.158-.6-1.833l1.453-1.832-3.835-4.819-1.455 1.828c-.539.675-1.455.2-1.455-.759v-2.584h-5.426v2.588c0 .958-.917 1.434-1.456.759l-1.455-1.828-3.835 4.815 1.455 1.832c.539.675.157 1.833-.6 1.833h-2.06v6.813h2.06c.759 0 1.141 1.154.6 1.833l-1.455 1.829 3.835 4.819 1.455-1.829c.539-.678 1.456-.2 1.456.756v2.587h5.426v-2.587c0-.955.916-1.434 1.455-.756l1.455 1.829 3.835-4.819-1.455-1.829c-.539-.679-.157-1.833.6-1.833h2.058v-6.813Z" fill="none" stroke="#0400bf" stroke-linecap="round" stroke-linejoin="round" stroke-width=".848"></path><path d="M30.121 66.672c0 2.231-1.442 4.043-3.215 4.043s-3.22-1.812-3.22-4.043 1.442-4.048 3.22-4.048 3.215 1.812 3.215 4.048Z" fill="none" stroke="#0400bf" stroke-linecap="round" stroke-linejoin="round" stroke-width=".848"></path><path d="M155.807 25.907a5.509 5.509 0 0 0-2.609-.48c-1.96.127-3.662 1.532-4.828 3.564a13.209 13.209 0 0 0-1.608 7.25c.008.131.017.267.03.4" fill="none" stroke="#0400bf" stroke-linecap="round" stroke-linejoin="round" stroke-width=".848"></path><path d="M160.893 34.871c0-.132-.008-.263-.017-.4a11.574 11.574 0 0 0-2.091-6.058 8.408 8.408 0 0 0-1.332-1.451" fill="none" stroke="#0400bf" stroke-linecap="round" stroke-linejoin="round" stroke-width=".848"></path><path d="m160.893 34.871 4.2-.272c-.008-.131-.008-.263-.017-.4a18.516 18.516 0 0 0-3.313-9.63c-2.278-3.139-5.49-5.019-8.926-4.794-3.305.217-6.152 2.567-8.01 5.978a20.08 20.08 0 0 0-2.257 10.759c.009.135.021.267.03.4l4.2-.271" fill="none" stroke="#0400bf" stroke-linecap="round" stroke-linejoin="round" stroke-width=".848"></path><path d="m157.453 26.963.208-.382a1.483 1.483 0 0 0-.213-1.659.733.733 0 0 0-1.226.217l-.415.768-1.7 3.13a1.7 1.7 0 0 0-.683-.093c-1.252.081-2.181 1.515-2.071 3.2s1.218 2.991 2.469 2.91 2.181-1.514 2.071-3.2a3.973 3.973 0 0 0-.344-1.383Z" fill="none" stroke="#0400bf" stroke-linecap="round" stroke-linejoin="round" stroke-width=".848"></path><path d="m152.833 19.776.365 5.651" fill="none" stroke="#0400bf" stroke-linecap="round" stroke-linejoin="round" stroke-width=".848"></path><path d="m144.853 25.771 3.071 3.19" fill="none" stroke="#0400bf" stroke-linecap="round" stroke-linejoin="round" stroke-width=".848"></path><path d="m161.606 24.68-2.571 3.56" fill="none" stroke="#0400bf" stroke-linecap="round" stroke-linejoin="round" stroke-width=".848"></path><path d="m177.8 102.872 2.5-3.173a3.531 3.531 0 0 0 4.039-1.32 5.757 5.757 0 0 0 1.158-2.923c-.03.039-.059.081-.089.123a2.836 2.836 0 0 1-4.663 0 5.011 5.011 0 0 1 0-5.909.817.817 0 0 1 .1-.111 3.813 3.813 0 0 0-2.308 1.464 6.207 6.207 0 0 0-1.039 5.121l-2.5 3.173" fill="none" stroke="#0400bf" stroke-linecap="round" stroke-linejoin="round" stroke-width=".848"></path><path d="m172.187 102.872-3.551 4.5.038.047a2.444 2.444 0 0 0-1.863 1 4.1 4.1 0 0 0 0 4.823 2.316 2.316 0 0 0 3.806 0 3.906 3.906 0 0 0 .785-2.358l.038.046 2.274-2.88 1.277-1.621" fill="none" stroke="#0400bf" stroke-linecap="round" stroke-linejoin="round" stroke-width=".848"></path><path d="m174.991 99.317-2.5-3.173a6.206 6.206 0 0 0-1.044-5.121 3.8 3.8 0 0 0-2.3-1.464 1.393 1.393 0 0 1 .093.111 5 5 0 0 1 0 5.909 2.831 2.831 0 0 1-4.658 0c-.034-.042-.06-.084-.089-.123a5.779 5.779 0 0 0 1.154 2.923 3.534 3.534 0 0 0 4.043 1.32l2.5 3.173 2.8 3.555 3.551 4.5.034-.046a3.925 3.925 0 0 0 .784 2.358 2.316 2.316 0 0 0 3.806 0 4.08 4.08 0 0 0 0-4.823 2.429 2.429 0 0 0-1.858-1l.034-.047-3.547-4.5Z" fill="none" stroke="#0400bf" stroke-linecap="round" stroke-linejoin="round" stroke-width=".848"></path><path d="m172.187 102.872 1.527 5.176" fill="none" stroke="#0400bf" stroke-linecap="round" stroke-linejoin="round" stroke-width=".848"></path></g></svg>